<?xml version="1.0" encoding="UTF-8"?>
<!DOCTYPE svg PUBLIC "-//W3C//DTD SVG 1.1//EN" "http://www.w3.org/Graphics/SVG/1.1/DTD/svg11.dtd">
<!-- Creator: CorelDRAW 2017 -->
<svg xmlns="http://www.w3.org/2000/svg" xml:space="preserve" width="465px" height="465px" version="1.1" style="shape-rendering:geometricPrecision; text-rendering:geometricPrecision; image-rendering:optimizeQuality; fill-rule:evenodd; clip-rule:evenodd"
viewBox="0 0 92.35 92.35"
 xmlns:xlink="http://www.w3.org/1999/xlink">
 <defs>
  <style type="text/css">
   <![CDATA[
    .str3 {stroke:white;stroke-width:0.94;stroke-miterlimit:22.9256}
    .str0 {stroke:white;stroke-width:0.94;stroke-miterlimit:22.9256}
    .str1 {stroke:#BA7A42;stroke-width:0.47;stroke-miterlimit:22.9256}
    .str2 {stroke:#FBE0A8;stroke-width:0.47;stroke-miterlimit:22.9256}
    .fil0 {fill:none}
    .fil5 {fill:#BA7A42}
    .fil6 {fill:#FBE0A8}
    .fil1 {fill:#FEFEFE;fill-rule:nonzero}
    .fil3 {fill:#BA7A42;fill-rule:nonzero}
    .fil2 {fill:#FBE0A8;fill-rule:nonzero}
    .fil4 {fill:white;fill-rule:nonzero}
   ]]>
  </style>
 </defs>
 <g id="Слой_x0020_1">
  <metadata id="CorelCorpID_0Corel-Layer"/>
  <g id="_1864240152032">
   <circle class="fil0" cx="45.85" cy="45.13" r="28.13"/>
   <path class="fil1" d="M55.14 45.2l-25.55 0 0 -0.96 25.55 0c3.59,0 6.51,-2.92 6.51,-6.51 0,-3.59 -2.92,-6.51 -6.51,-6.51l-25.55 0 0 -0.96 25.55 0c4.12,0 7.47,3.35 7.47,7.47 0,4.12 -3.35,7.47 -7.47,7.47z"/>
   <path class="fil1" d="M55.14 61.24l-25.55 0 0 -0.96 25.55 0c3.59,0 6.51,-2.92 6.51,-6.51 0,-3.59 -2.92,-6.51 -6.51,-6.51l-25.55 0 0 -0.96 25.55 0c4.12,0 7.47,3.35 7.47,7.47 0,4.12 -3.35,7.47 -7.47,7.47z"/>
   <polygon class="fil2" points="31.52,33.33 56.87,33.33 56.87,32.75 31.52,32.75 "/>
   <polygon class="fil2" points="31.52,35.64 58.79,35.64 58.79,35.06 31.52,35.06 "/>
   <polygon class="fil2" points="31.52,37.95 59.75,37.95 59.75,37.37 31.52,37.37 "/>
   <polygon class="fil2" points="31.52,40.25 58.79,40.25 58.79,39.68 31.52,39.68 "/>
   <polygon class="fil2" points="31.52,42.56 56.87,42.56 56.87,41.98 31.52,41.98 "/>
   <polygon class="fil3" points="31.52,49.44 56.87,49.44 56.87,48.86 31.52,48.86 "/>
   <polygon class="fil3" points="31.52,51.75 58.79,51.75 58.79,51.17 31.52,51.17 "/>
   <polygon class="fil3" points="31.52,54.06 59.75,54.06 59.75,53.48 31.52,53.48 "/>
   <polygon class="fil3" points="31.52,56.37 58.79,56.37 58.79,55.79 31.52,55.79 "/>
   <polygon class="fil3" points="31.52,58.67 56.87,58.67 56.87,58.1 31.52,58.1 "/>
   <circle class="fil0 str0" cx="46.17" cy="46.17" r="45.71"/>
   <path class="fil4" d="M15.83 57.29l1.49 2.84c0.53,1.02 0.72,1.85 0.55,2.5 -0.13,0.52 -0.5,0.94 -1.11,1.26 -0.49,0.25 -0.97,0.3 -1.46,0.14 -0.42,-0.13 -0.79,-0.41 -1.1,-0.82l-0.07 0.04c0.23,0.68 0.23,1.28 0.03,1.79 -0.18,0.44 -0.51,0.79 -0.99,1.04 -0.76,0.4 -1.48,0.42 -2.16,0.08 -0.61,-0.3 -1.14,-0.88 -1.57,-1.71l-1.57 -2.99 7.96 -4.17zm-0.33 1.9l-2.23 1.17 0.63 1.21c0.3,0.57 0.64,0.93 1.02,1.08 0.32,0.13 0.65,0.11 0.99,-0.07 0.39,-0.2 0.6,-0.48 0.64,-0.82 0.03,-0.32 -0.09,-0.73 -0.35,-1.24l-0.7 -1.33zm-3.27 1.71l-2.61 1.37 0.77 1.48c0.29,0.55 0.64,0.89 1.04,1.03 0.35,0.11 0.71,0.06 1.11,-0.15 0.43,-0.23 0.67,-0.57 0.72,-1.04 0.04,-0.41 -0.08,-0.87 -0.35,-1.39l-0.68 -1.3zm11.31 7.73c0.86,0.91 1.2,1.93 1.01,3.06 -0.17,1.01 -0.75,1.99 -1.74,2.92 -1.13,1.08 -2.28,1.61 -3.44,1.61 -0.98,0 -1.85,-0.4 -2.6,-1.19 -0.86,-0.91 -1.2,-1.93 -1,-3.06 0.16,-1.01 0.74,-1.98 1.73,-2.92 1.13,-1.08 2.28,-1.61 3.45,-1.6 0.98,0 1.84,0.4 2.59,1.18zm-0.88 0.83c-0.5,-0.52 -1.12,-0.7 -1.85,-0.53 -0.68,0.15 -1.4,0.59 -2.16,1.31 -0.87,0.82 -1.37,1.61 -1.49,2.35 -0.1,0.62 0.06,1.16 0.5,1.62 0.49,0.52 1.11,0.7 1.85,0.53 0.68,-0.16 1.4,-0.6 2.15,-1.32 0.87,-0.82 1.37,-1.6 1.49,-2.35 0.11,-0.61 -0.05,-1.15 -0.49,-1.61zm9.38 5.31c1.12,0.57 1.77,1.42 1.96,2.55 0.17,1.01 -0.05,2.12 -0.68,3.33 -0.72,1.39 -1.63,2.27 -2.73,2.64 -0.93,0.32 -1.87,0.23 -2.84,-0.27 -1.11,-0.58 -1.77,-1.43 -1.96,-2.56 -0.17,-1.01 0.06,-2.12 0.68,-3.33 0.72,-1.38 1.64,-2.26 2.74,-2.64 0.92,-0.32 1.87,-0.22 2.83,0.28zm-0.55 1.06c-0.65,-0.33 -1.29,-0.3 -1.93,0.11 -0.59,0.36 -1.13,1.01 -1.61,1.95 -0.55,1.06 -0.76,1.96 -0.63,2.7 0.1,0.62 0.43,1.08 0.99,1.37 0.64,0.33 1.29,0.3 1.93,-0.11 0.59,-0.37 1.12,-1.02 1.6,-1.94 0.55,-1.07 0.77,-1.97 0.64,-2.71 -0.1,-0.62 -0.43,-1.08 -0.99,-1.37zm13.77 2.54l-3.55 3.14 2.64 5.8 -1.76 -0.23 -2.03 -4.63 -1.19 1.04 -0.41 3.11 -1.53 -0.21 1.19 -8.9 1.52 0.2 -0.54 4.06 3.9 -3.61 1.76 0.23zm10.59 1.26l-1.43 0.62c-0.43,-1.21 -1.16,-1.72 -2.18,-1.55 -0.72,0.13 -1.23,0.55 -1.51,1.26 -0.26,0.66 -0.3,1.5 -0.13,2.52 0.21,1.17 0.59,2.01 1.17,2.54 0.47,0.43 1.02,0.59 1.64,0.48 1.06,-0.18 1.6,-0.92 1.63,-2.23l1.52 0.2c-0.14,1.83 -1.13,2.9 -2.95,3.22 -1.25,0.21 -2.3,-0.07 -3.15,-0.85 -0.76,-0.7 -1.25,-1.72 -1.48,-3.06 -0.27,-1.54 -0.07,-2.79 0.59,-3.76 0.55,-0.81 1.37,-1.32 2.45,-1.5 0.96,-0.17 1.79,-0.03 2.48,0.41 0.6,0.37 1.05,0.94 1.35,1.7zm6.17 -5.58l6.63 6.67 -1.45 0.76 -1.9 -1.98 -2.44 1.28 0.53 2.69 -1.31 0.69 -1.73 -9.23 1.67 -0.88zm2.5 4.55l-1.32 -1.37c-0.18,-0.19 -0.68,-0.76 -1.49,-1.71l-0.09 0.05c0.22,0.83 0.39,1.57 0.53,2.2l0.42 1.85 1.95 -1.02zm7.98 -10.59l-0.74 1.39c-0.87,-0.51 -1.59,-0.46 -2.16,0.14 -0.35,0.37 -0.53,0.73 -0.54,1.09 -0.01,0.3 0.11,0.57 0.35,0.81 0.31,0.29 0.63,0.41 0.97,0.38 0.3,-0.04 0.72,-0.22 1.26,-0.55l0.43 -0.24c0.93,-0.57 1.7,-0.83 2.3,-0.8 0.49,0.04 0.97,0.27 1.43,0.72 0.63,0.59 0.9,1.28 0.82,2.05 -0.07,0.71 -0.45,1.42 -1.12,2.13 -0.65,0.69 -1.34,1.09 -2.06,1.22 -0.65,0.11 -1.31,-0.01 -1.96,-0.36l0.68 -1.41c0.49,0.29 0.96,0.4 1.41,0.33 0.39,-0.06 0.74,-0.25 1.05,-0.57 0.79,-0.83 0.87,-1.54 0.25,-2.13 -0.31,-0.29 -0.63,-0.42 -0.96,-0.38 -0.32,0.03 -0.77,0.23 -1.37,0.58l-0.42 0.25c-0.9,0.51 -1.65,0.75 -2.24,0.71 -0.49,-0.04 -0.98,-0.29 -1.46,-0.74 -0.55,-0.52 -0.79,-1.15 -0.71,-1.89 0.06,-0.68 0.4,-1.34 1,-1.98 1.12,-1.18 2.39,-1.43 3.79,-0.75zm3.6 -9.91l1.1 0.57 -2.01 3.87 2.1 1.1 1.52 -2.93 1.1 0.57 -1.52 2.93 2.57 1.33 2.06 -3.96 1.1 0.57 -2.78 5.34 -7.97 -4.13 2.73 -5.26z"/>
   <polygon class="fil5 str1" points="8.94,40.52 10.01,44.06 13.51,44.05 10.68,46.23 11.76,49.77 8.94,47.58 6.11,49.77 7.2,46.23 4.37,44.05 7.86,44.06 "/>
   <polygon class="fil6 str2" points="82.04,39.92 83.12,43.46 86.62,43.45 83.78,45.63 84.87,49.17 82.04,46.98 79.22,49.17 80.31,45.63 77.47,43.45 80.97,43.46 "/>
   <path class="fil4" d="M11.77 29.09l3.01 2.6c0.35,0.31 0.56,0.61 0.62,0.91 0.06,0.26 0.02,0.55 -0.11,0.88 -0.06,0.14 -0.13,0.28 -0.2,0.4l-0.6 -0.21c0.09,-0.14 0.16,-0.28 0.21,-0.41 0.13,-0.31 0.04,-0.59 -0.26,-0.85l-0.12 -0.1 -3.77 -0.21 0.33 -0.81 1.57 0.17c0.13,0.02 0.54,0.07 1.22,0.17l0.02 -0.06c-0.08,-0.06 -0.25,-0.2 -0.52,-0.4 -0.19,-0.14 -0.34,-0.26 -0.47,-0.36l-1.24 -0.95 0.31 -0.77z"/>
   <path id="1" class="fil4" d="M13.41 25.93c0.26,-0.46 0.64,-0.72 1.12,-0.79 0.42,-0.06 0.87,0.05 1.34,0.32 0.54,0.32 0.88,0.71 1.01,1.18 0.11,0.4 0.05,0.81 -0.19,1.21 -0.26,0.46 -0.64,0.72 -1.12,0.79 -0.42,0.06 -0.87,-0.05 -1.34,-0.33 -0.54,-0.31 -0.87,-0.7 -1,-1.17 -0.11,-0.41 -0.05,-0.81 0.18,-1.21zm0.52 0.3c-0.27,0.46 -0.03,0.91 0.72,1.34 0.75,0.44 1.26,0.43 1.52,-0.02 0.27,-0.46 0.03,-0.91 -0.72,-1.35 -0.75,-0.43 -1.26,-0.42 -1.52,0.03z"/>
   <path id="2" class="fil4" d="M17.46 20.34l2.89 2.2 -0.49 0.64 -0.5 -0.38c0.1,0.26 0.14,0.51 0.11,0.77 -0.03,0.22 -0.12,0.43 -0.25,0.6 -0.2,0.27 -0.44,0.41 -0.72,0.44 -0.26,0.03 -0.52,-0.06 -0.77,-0.25l-2.11 -1.61 0.52 -0.68 1.92 1.47c0.31,0.24 0.57,0.22 0.78,-0.05 0.1,-0.13 0.15,-0.3 0.14,-0.51 0,-0.19 -0.04,-0.36 -0.13,-0.53l-1.89 -1.45 0.5 -0.66z"/>
   <path id="3" class="fil4" d="M20.62 17.14l0.5 0.6c-0.34,0.32 -0.37,0.78 -0.11,1.37l1.38 1.46 -0.59 0.56 -2.5 -2.62 0.56 -0.54 0.62 0.64c-0.28,-0.63 -0.24,-1.12 0.14,-1.47z"/>
   <path id="4" class="fil4" d="M24.55 12.21l1.15 1.78c-0.01,-0.23 0.04,-0.45 0.15,-0.64 0.09,-0.17 0.21,-0.3 0.37,-0.4 0.37,-0.23 0.75,-0.27 1.15,-0.1 0.37,0.15 0.71,0.46 1.01,0.94 0.35,0.53 0.48,1.04 0.41,1.51 -0.06,0.38 -0.25,0.67 -0.56,0.87 -0.39,0.25 -0.8,0.25 -1.21,0l0.16 0.56 -0.5 0.32 -2.82 -4.39 0.69 -0.45zm1.51 2.35l0.69 1.08c0.37,0.24 0.68,0.28 0.95,0.11 0.21,-0.13 0.31,-0.34 0.3,-0.61 -0.01,-0.26 -0.11,-0.55 -0.33,-0.88 -0.23,-0.37 -0.48,-0.6 -0.73,-0.7 -0.2,-0.07 -0.38,-0.05 -0.56,0.06 -0.28,0.18 -0.39,0.49 -0.32,0.94z"/>
   <path id="5" class="fil4" d="M30.76 10.6c0.48,-0.22 0.93,-0.22 1.36,0 0.39,0.2 0.69,0.54 0.92,1.04 0.26,0.57 0.31,1.08 0.14,1.54 -0.14,0.39 -0.42,0.69 -0.84,0.88 -0.49,0.22 -0.95,0.22 -1.37,0 -0.38,-0.19 -0.69,-0.54 -0.91,-1.03 -0.26,-0.57 -0.31,-1.09 -0.15,-1.55 0.15,-0.39 0.43,-0.69 0.85,-0.88zm0.25 0.55c-0.49,0.22 -0.54,0.72 -0.18,1.51 0.36,0.79 0.78,1.07 1.26,0.85 0.48,-0.22 0.54,-0.72 0.17,-1.51 -0.36,-0.79 -0.78,-1.07 -1.25,-0.85z"/>
   <path id="6" class="fil4" d="M35.93 8.8c0.51,-0.13 0.96,-0.06 1.35,0.23 0.34,0.26 0.58,0.65 0.72,1.17 0.17,0.61 0.13,1.12 -0.11,1.55 -0.2,0.36 -0.53,0.61 -0.98,0.73 -0.51,0.13 -0.96,0.06 -1.35,-0.23 -0.34,-0.26 -0.58,-0.65 -0.72,-1.17 -0.17,-0.61 -0.13,-1.12 0.11,-1.55 0.21,-0.36 0.54,-0.61 0.98,-0.73zm0.16 0.58c-0.52,0.14 -0.66,0.63 -0.43,1.46 0.22,0.84 0.59,1.19 1.1,1.06 0.51,-0.14 0.65,-0.63 0.42,-1.47 -0.22,-0.83 -0.59,-1.18 -1.09,-1.05z"/>
   <polygon id="7" class="fil4" points="42.87,7.65 41.82,9.13 43.35,11.25 42.44,11.35 41.36,9.75 40.92,10.35 41.05,11.51 40.24,11.6 39.65,6.41 40.47,6.32 40.82,9.48 41.95,7.75 "/>
   <path id="8" class="fil4" d="M50.85 8.93l-0.82 0.12c-0.04,-0.5 -0.23,-0.76 -0.58,-0.79 -0.54,-0.04 -0.84,0.36 -0.92,1.22 -0.07,0.86 0.17,1.31 0.71,1.36 0.38,0.03 0.63,-0.2 0.75,-0.7l0.76 0.28c-0.13,0.39 -0.35,0.67 -0.65,0.84 -0.26,0.15 -0.57,0.21 -0.93,0.18 -0.55,-0.04 -0.95,-0.27 -1.22,-0.67 -0.22,-0.35 -0.31,-0.8 -0.26,-1.35 0.05,-0.63 0.26,-1.1 0.62,-1.41 0.31,-0.28 0.7,-0.39 1.17,-0.36 0.42,0.04 0.75,0.18 0.99,0.43 0.21,0.22 0.33,0.5 0.38,0.85z"/>
   <path id="9" class="fil4" d="M54.56 8.5c0.51,0.12 0.87,0.4 1.07,0.84 0.18,0.39 0.21,0.85 0.08,1.38 -0.14,0.61 -0.42,1.04 -0.83,1.3 -0.35,0.23 -0.76,0.28 -1.21,0.18 -0.52,-0.13 -0.88,-0.41 -1.08,-0.85 -0.18,-0.38 -0.2,-0.84 -0.08,-1.37 0.15,-0.61 0.43,-1.04 0.84,-1.31 0.36,-0.22 0.76,-0.28 1.21,-0.17zm-0.14 0.58c-0.52,-0.12 -0.88,0.24 -1.08,1.08 -0.2,0.85 -0.04,1.33 0.47,1.45 0.51,0.13 0.87,-0.24 1.07,-1.08 0.2,-0.84 0.05,-1.33 -0.46,-1.45z"/>
   <polygon id="10" class="fil4" points="59.55,8.41 57.78,13.33 57,13.04 58.77,8.13 "/>
   <polygon id="11" class="fil4" points="62.54,9.68 60.4,14.45 59.64,14.11 61.78,9.34 "/>
   <path id="12" class="fil4" d="M65.66 15.47l-2.12 -1.23c-0.19,0.33 -0.26,0.62 -0.21,0.88 0.04,0.24 0.18,0.43 0.42,0.57 0.34,0.19 0.67,0.12 1.01,-0.21l0.54 0.57c-0.55,0.49 -1.16,0.53 -1.85,0.14 -0.5,-0.29 -0.79,-0.68 -0.86,-1.15 -0.06,-0.42 0.04,-0.87 0.32,-1.35 0.32,-0.54 0.71,-0.88 1.19,-1.01 0.4,-0.11 0.81,-0.05 1.2,0.18 0.45,0.26 0.7,0.62 0.77,1.09 0.07,0.43 -0.04,0.89 -0.32,1.37l-0.09 0.15zm-0.43 -0.88c0.29,-0.57 0.22,-0.98 -0.21,-1.23 -0.22,-0.13 -0.45,-0.15 -0.68,-0.05 -0.19,0.08 -0.36,0.23 -0.52,0.46l1.41 0.82z"/>
   <path id="13" class="fil4" d="M70.1 17.71l-0.76 -0.34c0.24,-0.44 0.22,-0.76 -0.06,-0.98 -0.43,-0.32 -0.91,-0.15 -1.43,0.54 -0.53,0.69 -0.57,1.2 -0.14,1.52 0.3,0.24 0.64,0.17 1.01,-0.18l0.49 0.64c-0.32,0.26 -0.65,0.38 -1,0.37 -0.3,-0.02 -0.6,-0.13 -0.88,-0.35 -0.44,-0.34 -0.66,-0.75 -0.67,-1.22 0,-0.42 0.17,-0.85 0.5,-1.29 0.38,-0.5 0.81,-0.79 1.29,-0.86 0.41,-0.06 0.81,0.05 1.18,0.34 0.33,0.25 0.53,0.55 0.6,0.89 0.06,0.29 0.02,0.6 -0.13,0.92z"/>
   <path id="14" class="fil4" d="M73.84 18.28l-0.84 0.84 0.57 0.58 -0.43 0.42 -0.57 -0.57 -1.42 1.4c-0.24,0.25 -0.26,0.48 -0.05,0.69 0.11,0.11 0.22,0.2 0.33,0.27l-0.45 0.4c-0.14,-0.11 -0.31,-0.26 -0.48,-0.43 -0.26,-0.27 -0.39,-0.52 -0.37,-0.75 0,-0.22 0.12,-0.43 0.34,-0.65l1.52 -1.51 -0.38 -0.39 0.43 -0.43 0.38 0.39 0.71 -0.7 0.71 0.44z"/>
   <path id="15" class="fil4" d="M75.4 21.92l-2.84 2.26 -0.52 -0.66 2.84 -2.25 0.52 0.65zm1.2 -0.9l-0.67 0.53 -0.56 -0.71 0.67 -0.53 0.56 0.71z"/>
   <path id="16" class="fil4" d="M77.68 24.97c0.28,0.45 0.35,0.9 0.19,1.35 -0.14,0.41 -0.44,0.76 -0.9,1.05 -0.53,0.34 -1.03,0.46 -1.5,0.36 -0.42,-0.08 -0.75,-0.32 -1,-0.71 -0.28,-0.45 -0.35,-0.9 -0.19,-1.36 0.14,-0.4 0.44,-0.75 0.9,-1.04 0.53,-0.34 1.03,-0.46 1.51,-0.36 0.41,0.09 0.74,0.32 0.99,0.71zm-0.51 0.32c-0.28,-0.44 -0.79,-0.43 -1.52,0.04 -0.73,0.47 -0.95,0.92 -0.67,1.37 0.28,0.44 0.79,0.43 1.53,-0.04 0.72,-0.47 0.95,-0.92 0.66,-1.37z"/>
   <path id="17" class="fil4" d="M79.88 29.18l-0.57 0.27c0.28,0.04 0.52,0.14 0.73,0.29 0.18,0.13 0.32,0.3 0.41,0.49 0.14,0.3 0.15,0.58 0.03,0.84 -0.1,0.24 -0.3,0.43 -0.59,0.56l-2.38 1.09 -0.35 -0.77 2.17 -1c0.37,-0.17 0.48,-0.41 0.34,-0.71 -0.06,-0.14 -0.19,-0.26 -0.37,-0.36 -0.16,-0.08 -0.34,-0.13 -0.54,-0.15l-2.16 0.99 -0.35 -0.76 3.3 -1.51 0.33 0.73z"/>
   <path class="fil0 str3" d="M71.96 55.91c-2.96,7.22 -8.78,12.88 -16.08,15.64 -14.53,5.49 -30.76,-1.84 -36.25,-16.37 -5.49,-14.53 1.84,-30.76 16.37,-36.25 14.53,-5.49 30.76,1.83 36.25,16.37"/>
  </g>
 </g>
</svg>
